<?xml version="1.0" encoding="utf-8"?>
<!-- Generator: Adobe Illustrator 24.3.0, SVG Export Plug-In . SVG Version: 6.00 Build 0)  -->
<svg version="1.1" id="Слой_1" xmlns="http://www.w3.org/2000/svg" xmlns:xlink="http://www.w3.org/1999/xlink" x="0px" y="0px"
	 viewBox="0 0 1000 300" enable-background="new 0 0 1000 300" xml:space="preserve">
<path fill="#E83B4E" d="M730,249.777771H356.6666565C333.1025085,249.777771,314,230.6752625,314,207.1111145V104
	c0-23.5641479,19.1025085-42.6666679,42.6666565-42.6666679H730c23.5641479,0,42.666626,19.10252,42.666626,42.6666679v103.1111145
	C772.666626,230.6752625,753.5641479,249.777771,730,249.777771z"/>
<g>
	<path fill="#FFFFFF" d="M49.6811523,170.4003906c0,5.9677734,6.8393555,8.9521484,13.8022461,8.9521484
		c6.4658203,0,13.3046875-2.984375,13.3046875-8.2060547c0-8.3310547-9.6987305-8.7041016-16.0400391-9.0771484
		c-15.9160156-0.9951172-31.8320312-7.3369141-31.8320312-25.4912109c0-18.8999023,16.0400391-28.4746094,33.8212891-28.4746094
		c16.7866211,0,33.8217773,9.574707,33.4487305,28.4746094H74.9233398
		c-0.1245117-5.9682617-5.7202148-8.4550781-11.8129883-8.4550781c-5.0981445,0-11.8125,1.3676758-11.8125,7.9580078
		c0,5.8442383,4.9736328,7.2119141,13.3046875,8.0820312c18.5273438,1.6166992,34.6918945,5.96875,34.6918945,27.1074219
		c0,18.2783203-17.78125,27.8535156-35.5620117,27.8535156c-18.4033203,0-36.0600586-9.2021484-35.6870117-28.7236328H49.6811523z"
		/>
	<path fill="#FFFFFF" d="M190.1899414,109.8442383h8.0825195v87.2895508h-22.7548828v-40.1630859l-18.5273438,19.3974609h-2.6113281
		l-18.5273438-19.3974609v40.1630859h-22.7548828v-87.2895508h8.0825195l34.5673828,37.6762695L190.1899414,109.8442383z"/>
	<path fill="#FFFFFF" d="M294.0185547,109.8442383h8.0825195v87.2895508h-22.7548828v-40.1630859l-18.5273438,19.3974609h-2.6113281
		l-18.5273438-19.3974609v40.1630859H216.925293v-87.2895508h8.0825195l34.5673828,37.6762695L294.0185547,109.8442383z"/>
	<path fill="#FFFFFF" d="M350.5966797,197.0097656V109.96875c12.9316406,0,25.4902344-0.1245117,38.4223633,0
		c20.8896484,0,31.5830078,16.2890625,31.2099609,32.7026367c0,15.9165039-10.5688477,31.8325195-31.2099609,31.8325195h-15.6674805
		v22.5058594H350.5966797z M389.019043,154.7324219c5.9682617,0,9.4501953-6.3413086,9.4501953-12.6831055
		c0-6.2172852-3.2333984-12.3100586-9.4501953-12.3100586h-16.0405273v24.9931641H389.019043z"/>
	<path fill="#FFFFFF" d="M447.0898438,198.2529297c-11.190918,0-21.387207-7.3359375-21.7602539-18.9003906
		c-0.621582-15.1699219,9.4501953-22.2568359,23.2524414-22.2568359c4.4760742,0,9.5742188,0.8701172,13.4287109,3.3564453
		v-1.8642578c0-6.09375-8.3305664-6.8398438-12.9316406-6.8398438c-5.84375,0-11.4394531,0.6220703-16.5375977,3.2333984
		l-2.4868164-15.0458984c6.3413086-2.8598633,14.6723633-4.3520508,22.7548828-4.3520508
		c16.2890625,0,29.8427734,5.7197266,29.8427734,23.6254883v19.2734375c0,4.4765625,0,6.9628906,4.9736328,6.9628906v11.5644531
		c-8.5800781,1.9892578-19.8955078,3.1083984-21.2626953-8.2070312
		C463.0058594,195.7666016,454.1772461,198.2529297,447.0898438,198.2529297z M461.8867188,173.3847656
		c-2.6113281-1.8652344-6.0927734-2.8603516-9.4501953-2.7363281c-4.3520508,0.3730469-7.3364258,2.7363281-6.4658203,7.2119141
		c0.3730469,2.8603516,2.7353516,4.2285156,5.5952148,4.2285156c4.3520508,0,10.3208008-2.3632812,10.3208008-7.4609375V173.3847656
		z"/>
	<path fill="#FFFFFF" d="M540.2246094,197.1337891v-34.3183594c0.1240234-6.8388672-4.1035156-10.1962891-8.7041016-10.3212891
		c-4.9736328,0-10.0722656,3.4824219-10.0722656,10.6943359v33.9453125h-21.1376953v-41.6552734
		c0-4.6005859,0.2480469-6.8388672-5.0986328-6.8388672v-11.5639648c8.3310547-1.9892578,25.2421875-3.3574219,25.6152344,8.3310547
		c3.3574219-6.3413086,10.4443359-9.574707,17.2832031-9.574707c17.4082031,0,23.75,11.9370117,23.3769531,26.9833984v34.3183594
		H540.2246094z"/>
	<path fill="#FFFFFF" d="M630.6230469,172.140625h-37.1787109c0.9941406,7.8339844,7.7089844,9.5751953,14.9208984,9.5751953
		c7.0878906,0,16.0400391-1.8652344,20.2675781-3.8554688l2.3632812,15.2949219
		c-7.3369141,3.3574219-15.6679688,5.4707031-23.9990234,5.5957031c-20.0185547,0-34.6914062-11.4404297-34.6914062-31.8320312
		c0-21.7607422,16.4130859-31.3354492,31.8320312-31.3354492
		C627.0166016,135.956543,635.9697266,151.0029297,630.6230469,172.140625z M612.9658203,159.4580078
		c0.6220703-5.4716797-4.6005859-7.7099609-8.953125-7.7099609c-4.4755859,0-9.4492188,2.6113281-10.4443359,7.7099609H612.9658203z
		"/>
	<path fill="#FFFFFF" d="M664.1962891,106.2382812v67.0214844c0,8.0830078,4.1035156,9.6992188,10.4443359,8.7041016
		l0.6220703,15.7919922c-18.6513672,3.3574219-31.9560547-1.2431641-31.9560547-24.3710938v-67.1464844H664.1962891z"/>
	<path fill="#FFFFFF" d="M739.1757812,172.140625h-37.1787109c0.9941406,7.8339844,7.7089844,9.5751953,14.9208984,9.5751953
		c7.0878906,0,16.0400391-1.8652344,20.2675781-3.8554688l2.3632812,15.2949219
		c-7.3369141,3.3574219-15.6679688,5.4707031-23.9990234,5.5957031c-20.0185547,0-34.6914062-11.4404297-34.6914062-31.8320312
		c0-21.7607422,16.4130859-31.3354492,31.8320312-31.3354492
		C735.5693359,135.956543,744.5224609,151.0029297,739.1757812,172.140625z M721.5185547,159.4580078
		c0.6220703-5.4716797-4.6005859-7.7099609-8.953125-7.7099609c-4.4755859,0-9.4492188,2.6113281-10.4443359,7.7099609H721.5185547z
		"/>
	<path fill="#FFFFFF" d="M780.8320312,188.0566406c0-6.9628906,5.4707031-11.4394531,12.3095703-11.4394531
		c6.9638672,0,12.3105469,4.4765625,12.3105469,11.4394531c0,6.9638672-5.3466797,11.3154297-12.3105469,11.3154297
		C786.3027344,199.3720703,780.8320312,195.0205078,780.8320312,188.0566406z"/>
	<path fill="#FFFFFF" d="M894.6064453,193.7763672v3.2333984h-24.1230469l-14.921875-27.2314453H843.625v27.2314453h-22.7548828
		V109.96875c12.9316406,0,25.4902344-0.1245117,38.2978516,0c21.0136719,0,31.3349609,15.5429688,31.3349609,30.8374023
		c-0.125,9.9472656-4.3525391,19.5219727-12.9316406,25.3666992L894.6064453,193.7763672z M859.0439453,151.2509766
		c6.3408203,0,9.4501953-5.4711914,9.4501953-10.9423828s-2.984375-10.5693359-9.4501953-10.5693359h-15.7919922v21.5117188
		H859.0439453z"/>
	<path fill="#FFFFFF" d="M963.4951172,137.2001953v42.2773438c0,3.9785156,0.125,5.84375,4.9736328,5.84375v11.5644531
		c-8.0820312,1.9892578-25.6142578,4.6005859-25.6142578-8.7041016c-3.1083984,6.3408203-10.3203125,9.8232422-17.1601562,9.8232422
		c-17.9052734,0-22.1328125-11.8134766-22.1328125-26.8583984v-33.9462891h21.3867188v33.9462891
		c-0.3730469,7.2119141,3.6064453,10.3203125,7.8339844,10.3203125c4.9736328,0,9.5742188-4.1035156,9.5742188-10.6933594
		v-33.5732422H963.4951172z"/>
</g>
<g>
</g>
<g>
</g>
<g>
</g>
<g>
</g>
<g>
</g>
<g>
</g>
</svg>
